<svg version="1.1" id="Layer_1" xmlns="http://www.w3.org/2000/svg" xmlns:xlink="http://www.w3.org/1999/xlink" x="0px" y="0px"
	 width="90px" height="80px" viewBox="0 0 90 80" enable-background="new 0 0 90 80" xml:space="preserve">
<linearGradient id="SVGID_1_" gradientUnits="userSpaceOnUse" x1="44.6978" y1="1.5635" x2="44.6978" y2="76.563">
	<stop  offset="0" style="stop-color:#577A9A"/>
	<stop  offset="1" style="stop-color:#1F2A37"/>
</linearGradient>
<path fill="url(#SVGID_1_)" d="M87.999,31.563C88,31.562,79.34,16.562,79.34,16.562h-0.002h-17.32
	c0,0.001-17.321,0.001-17.321,0.001H27.379l-8.66-15l-8.661,15l-0.001-0.001l8.66,15c0.002,0.001-8.659,15-8.659,15
	c0.001,0-8.66,15-8.66,15s8.66,15,8.661,15h17.32l-8.66-15c0,0,8.66-15,8.659-15c0,0,8.66,15,8.661,15l8.66,15h17.319l8.66-15h0.002
	l8.66-15h-0.002L87.999,31.563z M62.018,46.562l-8.661,15l-8.66-15h0.002l-8.66-15h17.318l0.002-0.001h17.319
	C70.678,31.563,62.018,46.562,62.018,46.562z"/>
<polygon fill="#263544" points="53.358,61.562 44.698,76.562 36.038,61.562"/>
<polygon fill="#2D3F50" points="36.036,61.562 44.696,46.562 53.356,61.562"/>
<polygon fill="#50728F" points="62.018,16.563 53.356,31.563 44.696,16.563"/>
<polygon fill="#1F2B37" points="44.696,76.562 53.357,61.562 62.018,76.562"/>
<polygon fill="#3B5369" points="10.057,46.562 18.718,31.563 27.378,46.562"/>
<polygon fill="#34495C" points="27.378,46.562 18.718,61.562 10.057,46.562"/>
<polygon fill="#496882" points="18.717,31.562 27.378,16.562 36.038,31.562"/>
<polygon fill="#425E77" points="36.038,31.563 27.377,46.562 18.717,31.563"/>
<polygon fill="#3C536A" points="27.377,46.562 36.038,31.563 44.698,46.562"/>
<polygon fill="#34495D" points="44.698,46.562 36.037,61.562 27.377,46.562"/>
<polygon fill="#263543" points="70.678,61.562 62.018,76.562 53.356,61.562"/>
<polygon fill="#3B5369" points="62.018,46.562 70.678,31.563 79.338,46.562"/>
<polygon fill="#425E77" points="87.999,31.563 79.338,46.562 70.678,31.563"/>
<polygon fill="#2D3F50" points="53.356,61.562 62.018,46.562 70.678,61.562"/>
<polygon fill="#50728F" points="44.696,16.563 36.036,31.563 27.376,16.563"/>
<polygon fill="#496882" points="36.038,31.563 44.698,16.563 53.358,31.563"/>
<polygon fill="#496882" points="53.358,31.562 62.02,16.562 70.68,31.562"/>
<polygon fill="#50728F" points="79.338,16.562 70.678,31.562 62.018,16.562"/>
<polygon fill="#496882" points="70.68,31.562 79.34,16.562 88,31.562"/>
<polygon fill="#34495C" points="79.34,46.562 70.68,61.562 62.02,46.562"/>
<polygon fill="#2D3F50" points="1.397,61.562 10.058,46.562 18.718,61.562"/>
<polygon fill="#263543" points="18.718,61.562 10.057,76.562 1.397,61.562"/>
<polygon fill="#1F2A37" points="10.058,76.562 18.718,61.562 27.378,76.562"/>
<polygon fill="#50728F" points="27.378,16.562 18.716,31.562 10.056,16.562"/>
<polygon fill="#577B9C" points="10.058,16.563 18.719,1.563 27.379,16.563"/>
<polygon opacity="0.3" points="57.687,54.062 62.018,76.562 53.356,61.562"/>
<polygon opacity="0.3" points="79.338,16.562 70.678,31.562 62.018,31.563"/>
<polygon opacity="0.3" points="44.698,31.562 36.036,31.563 27.376,16.563"/>
<polygon opacity="0.3" points="14.387,39.062 18.718,31.563 27.378,46.562"/>
</svg>
