<svg version="1.1" id="Layer_1" xmlns="http://www.w3.org/2000/svg" xmlns:xlink="http://www.w3.org/1999/xlink" x="0px" y="0px" width="90px" height="80px" viewBox="0 0 90 80" enable-background="new 0 0 90 80" xml:space="preserve">
  <polygon fill="#263544" points="53.664,62.562 45.004,77.562 36.343,62.562"/>
  <polygon fill="#2D3F50" points="36.342,62.562 45.002,47.562 53.662,62.562"/>
  <polygon fill="#50718F" points="62.323,17.563 53.662,32.563 45.002,17.563"/>
  <polygon fill="#1F2B37" points="45.002,77.562 53.663,62.562 62.323,77.562"/>
  <polygon fill="#3C5369" points="10.362,47.562 19.023,32.563 27.683,47.562"/>
  <polygon fill="#35495C" points="27.684,47.562 19.023,62.562 10.363,47.562"/>
  <polygon fill="#496783" points="19.022,32.562 27.683,17.562 36.343,32.562"/>
  <polygon fill="#435E76" points="36.343,32.563 27.683,47.562 19.022,32.563"/>
  <polygon fill="#3C536A" points="27.683,47.562 36.343,32.563 45.004,47.562"/>
  <polygon fill="#35495D" points="45.004,47.562 36.343,62.562 27.683,47.562"/>
  <polygon fill="#263543" points="70.983,62.562 62.323,77.562 53.662,62.562"/>
  <polygon fill="#3C5369" points="62.323,47.562 70.983,32.563 79.644,47.562"/>
  <polygon fill="#435E76" points="88.305,32.563 79.644,47.562 70.983,32.563"/>
  <polygon fill="#2D3F50" points="53.662,62.562 62.323,47.562 70.983,62.562"/>
  <polygon fill="#50718F" points="45.002,17.563 36.342,32.563 27.682,17.563"/>
  <polygon fill="#496783" points="36.343,32.563 45.004,17.563 53.664,32.563"/>
  <polygon fill="#496783" points="53.664,32.562 62.325,17.562 70.985,32.562"/>
  <polygon fill="#50718F" points="79.644,17.562 70.983,32.562 62.323,17.562"/>
  <polygon fill="#496783" points="70.985,32.562 79.646,17.562 88.306,32.562"/>
  <polygon fill="#35495C" points="79.646,47.562 70.985,62.562 62.325,47.562"/>
  <polygon fill="#2D3F50" points="1.703,62.562 10.363,47.562 19.023,62.562"/>
  <polygon fill="#263543" points="19.023,62.562 10.363,77.562 1.703,62.562"/>
  <polygon fill="#1F2A37" points="10.363,77.562 19.024,62.562 27.684,77.562"/>
  <polygon fill="#50718F" points="27.683,17.562 19.022,32.562 10.362,17.562"/>
  <polygon fill="#577A9C" points="10.363,17.563 19.024,2.563 27.685,17.563"/>
  <polygon opacity="0.3" points="57.992,55.062 62.323,77.562 53.662,62.562"/>
  <polygon opacity="0.3" points="79.644,17.562 70.983,32.562 62.323,32.563"/>
  <polygon opacity="0.3" points="45.004,32.562 36.342,32.563 27.682,17.563"/>
  <polygon opacity="0.3" points="14.692,40.062 19.023,32.563 27.683,47.562"/>
</svg>
